<?xml version="1.0" standalone="no"?>
<!DOCTYPE svg PUBLIC "-//W3C//DTD SVG 20010904//EN"
 "http://www.w3.org/TR/2001/REC-SVG-20010904/DTD/svg10.dtd">
<svg version="1.0" xmlns="http://www.w3.org/2000/svg"
 width="300.000000pt" height="300.000000pt" viewBox="0 0 300.000000 300.000000"
 preserveAspectRatio="xMidYMid meet">
<metadata>
Created by potrace 1.11, written by Peter Selinger 2001-2013
</metadata>
<g transform="translate(0.000000,300.000000) scale(0.100000,-0.100000)"
fill="#000000" stroke="none">
<path d="M0 1500 l0 -1500 1500 0 1500 0 0 1500 0 1500 -1500 0 -1500 0 0
-1500z m1899 1119 c26 -32 32 -47 28 -69 -4 -18 -1 -32 8 -40 8 -7 15 -20 15
-29 0 -10 6 -25 13 -36 13 -17 16 -17 63 8 66 35 92 41 109 27 22 -18 18 -46
-10 -68 -30 -24 -31 -32 -5 -32 11 0 20 -7 20 -15 0 -8 -9 -15 -20 -15 -11 0
-20 -5 -20 -11 0 -6 6 -9 14 -6 20 8 44 -23 48 -62 l3 -33 25 21 25 21 -27 23
c-21 17 -25 26 -17 40 12 21 32 22 49 2 7 -8 20 -15 29 -15 15 1 15 2 0 13
-16 12 -18 54 -5 76 4 6 0 27 -9 47 -16 38 -13 54 10 54 17 0 25 -21 15 -40
-5 -8 -2 -33 6 -55 7 -22 14 -56 14 -75 0 -19 7 -46 15 -60 8 -14 14 -41 15
-61 0 -41 33 -82 43 -54 8 19 27 19 52 1 16 -12 17 -16 6 -30 -7 -9 -25 -16
-38 -16 -18 0 -23 -4 -20 -14 3 -8 -1 -22 -8 -33 -21 -27 -18 -39 4 -19 15 14
24 15 40 7 27 -15 31 -14 31 7 0 9 9 35 20 57 17 34 19 36 13 10 -4 -16 -7
-44 -7 -62 -1 -17 -4 -34 -8 -38 -12 -12 5 -45 23 -45 22 0 43 -35 36 -61 -3
-12 8 -39 29 -70 19 -28 34 -63 34 -79 0 -15 3 -41 6 -58 6 -28 3 -33 -22 -44
-16 -6 -41 -25 -56 -40 -23 -24 -35 -28 -82 -28 -54 0 -56 -1 -81 -40 -26 -41
-39 -47 -65 -30 -9 5 -19 5 -27 -2 -20 -16 -15 -28 12 -28 20 0 25 -5 25 -26
0 -15 -10 -44 -22 -66 l-23 -40 23 -16 c12 -10 27 -35 33 -56 10 -37 11 -37
30 -20 23 21 25 42 4 50 -18 7 -20 40 -3 50 14 9 38 -23 38 -52 0 -12 7 -27
16 -34 9 -8 14 -25 12 -44 -2 -24 -8 -32 -26 -34 -13 -2 -32 4 -42 13 -10 9
-36 19 -58 22 -34 5 -40 2 -45 -16 -9 -36 -87 -18 -87 20 0 6 -8 8 -17 5 -10
-3 -30 -8 -45 -12 l-28 -6 0 106 0 106 50 0 50 0 0 40 0 40 -145 0 -145 0 0
-39 0 -40 51 -3 51 -3 -1 -142 -2 -143 26 0 c22 0 25 -4 25 -35 0 -31 -3 -35
-25 -35 -28 0 -30 -6 -14 -47 9 -24 7 -30 -10 -44 -20 -17 -20 -17 0 -35 46
-42 61 -82 57 -149 -4 -60 -8 -71 -66 -154 -34 -50 -62 -94 -62 -100 0 -5 10
-13 23 -16 59 -17 79 -30 97 -65 23 -45 49 -54 135 -45 65 7 106 -5 134 -39
19 -23 5 -20 -30 6 -28 21 -33 22 -118 11 -107 -14 -168 -3 -181 32 -16 41
-88 41 -104 -1 -8 -20 10 -44 32 -44 8 0 35 -12 59 -26 24 -14 62 -29 86 -33
l42 -9 -41 -1 c-23 -1 -61 8 -85 19 -24 11 -58 20 -75 20 -18 0 -51 9 -75 20
-24 11 -61 20 -82 20 -31 0 -45 7 -68 31 -27 29 -31 30 -47 16 -23 -21 -122
-67 -147 -67 -11 -1 -38 -8 -60 -16 -50 -19 -237 -84 -243 -84 -3 0 1 7 8 14
6 8 35 20 64 26 29 6 77 26 107 46 30 19 65 37 79 40 35 7 73 27 77 41 3 8
-22 4 -71 -11 -42 -13 -76 -20 -76 -16 0 5 9 11 19 15 22 7 49 35 34 35 -6 0
-28 -12 -49 -27 -27 -18 -56 -27 -94 -30 -33 -2 -71 -13 -95 -27 -27 -16 -63
-25 -109 -29 -78 -6 -70 6 15 21 31 6 71 20 90 31 19 11 55 22 80 26 38 6 45
10 45 28 -1 17 6 23 27 25 29 4 34 11 16 29 -19 19 -1 31 40 27 32 -4 41 -1
45 13 10 31 3 94 -11 101 -13 8 -13 45 0 58 4 4 7 22 7 41 0 41 16 43 25 3 4
-17 10 -30 15 -30 4 0 10 -14 14 -30 7 -38 31 -48 56 -25 24 22 18 34 -6 14
-16 -13 -17 -11 -11 17 3 17 1 36 -5 42 -12 12 -3 32 15 32 7 0 17 10 22 21 6
12 15 22 20 21 6 0 17 4 26 9 22 12 56 -15 64 -50 3 -16 1 -48 -5 -71 -14 -53
-7 -60 26 -29 50 45 67 120 43 187 -10 30 -13 32 -51 26 l-40 -7 3 41 c2 23 0
44 -3 48 -4 3 -25 3 -48 -1 -31 -5 -44 -13 -50 -31 -10 -25 -25 -31 -35 -13
-5 7 -15 5 -30 -5 -22 -15 -24 -14 -33 12 -9 25 -14 28 -46 24 -20 -2 -57 -1
-82 3 -44 6 -46 8 -41 35 6 25 2 29 -36 44 -56 21 -64 20 -83 -9 -9 -14 -25
-25 -37 -25 -11 0 -25 -8 -32 -17 -11 -15 -15 -15 -30 -3 -9 7 -14 22 -12 32
3 10 1 18 -4 18 -5 0 -9 5 -9 11 0 6 6 9 13 6 6 -2 20 2 29 10 9 9 32 18 50
22 28 6 33 11 33 36 0 39 -30 47 -39 11 -9 -36 -51 -63 -71 -46 -13 10 -19 10
-34 -4 -11 -10 -37 -20 -59 -23 -38 -5 -39 -4 -46 27 -3 18 -9 30 -13 27 -3
-4 -21 3 -40 14 -33 20 -33 20 -33 1 0 -11 -8 -30 -19 -43 l-19 -23 -36 19
c-50 27 -48 64 4 82 26 9 29 12 13 12 -14 1 -23 7 -23 16 0 21 -17 19 -48 -6
l-27 -21 -26 31 c-14 17 -31 31 -37 31 -19 0 -14 28 8 40 19 10 19 12 3 37
-16 25 -16 26 7 45 l23 19 -32 33 -32 33 20 34 c27 44 27 69 1 69 -12 0 -25
10 -32 26 -17 36 0 60 41 56 26 -3 31 0 31 18 0 13 -9 24 -25 30 -15 6 -25 17
-25 29 0 16 -5 18 -38 14 -35 -5 -40 -3 -50 23 -8 19 -9 39 -3 60 5 18 5 37 0
47 -7 11 -4 17 10 22 11 3 22 11 24 18 2 7 2 3 0 -8 -17 -89 -18 -85 16 -85
28 0 31 -3 31 -30 0 -23 5 -30 19 -30 30 0 46 -23 60 -84 7 -31 16 -56 21 -56
19 0 19 21 0 52 -11 18 -20 38 -20 44 0 7 22 26 49 43 47 31 49 33 38 61 -14
37 -43 39 -99 8 l-40 -23 -19 24 c-10 13 -19 31 -19 40 0 21 49 51 83 51 28 0
44 15 27 25 -5 3 -10 10 -10 16 0 5 9 4 19 -3 25 -15 51 4 51 39 0 13 4 33 10
43 7 13 6 21 -5 30 -20 16 -19 39 2 62 19 21 44 22 97 3 22 -8 43 -12 47 -9 4
2 2 22 -6 44 -12 35 -12 41 2 49 11 5 27 5 42 0 17 -7 27 -6 33 3 11 18 10 56
-2 63 -15 9 -12 25 4 25 18 0 24 -44 13 -88 -6 -25 -4 -40 7 -57 9 -14 16 -29
16 -35 0 -13 -43 -13 -56 0 -8 8 -14 7 -23 -3 -9 -12 -5 -21 19 -47 27 -29 32
-31 43 -17 18 23 57 32 57 13 0 -18 2 -19 23 -10 11 4 14 15 11 37 -6 45 26
83 57 67 17 -10 23 -9 30 1 6 11 11 10 26 -2 10 -9 26 -19 36 -22 9 -4 17 -13
17 -22 0 -19 8 -19 55 1 37 15 38 15 64 -10 15 -14 37 -26 48 -26 14 0 31 -16
52 -48 37 -58 38 -70 8 -81 -19 -8 -26 -25 -46 -114 -13 -57 -27 -110 -31
-117 -5 -7 -20 37 -36 109 l-29 121 -62 0 -63 0 0 -185 0 -185 35 0 35 0 0
140 c0 77 3 140 8 140 4 0 22 -63 41 -140 l35 -140 32 0 32 0 32 133 c18 72
37 137 42 142 5 6 8 -45 7 -130 l-1 -140 38 0 39 0 3 183 c2 161 1 182 -13
182 -12 0 -15 6 -10 20 5 16 2 20 -19 20 -17 0 -34 12 -53 37 -24 31 -29 47
-32 115 -2 64 0 78 12 78 28 0 77 53 77 83 0 23 4 28 16 23 9 -4 24 0 33 7 9
8 28 17 43 21 24 6 27 10 21 37 -10 51 44 67 98 28 l29 -20 0 31 c0 30 2 32
30 28 25 -4 28 -2 18 10 -7 8 -21 18 -33 22 -20 9 -20 9 0 9 11 1 37 -18 58
-41 l39 -43 13 32 c7 17 23 34 34 38 25 8 27 23 4 54 -12 19 -14 28 -5 42 13
20 2 32 -21 23 -19 -7 -32 27 -15 38 20 12 22 11 57 -33z m-1048 -318 c-14
-10 -31 -17 -38 -14 -10 4 -8 9 9 18 37 21 57 17 29 -4z m1649 -49 c0 -16 -6
-37 -14 -47 -11 -16 -12 -12 -2 28 12 54 16 58 16 19z"/>
<path d="M2000 2420 c-14 -4 -41 -5 -61 -2 -20 2 -39 0 -43 -6 -9 -15 25 -50
57 -58 24 -6 27 -4 27 21 0 27 1 27 45 23 25 -3 45 -3 45 1 0 13 -46 27 -70
21z"/>
<path d="M1879 2336 c-9 -10 3 -66 14 -66 6 0 21 -10 34 -22 30 -28 39 -18 18
22 -13 25 -14 35 -4 46 7 8 7 14 1 14 -5 0 -12 -7 -16 -15 -8 -21 -21 -19 -32
6 -5 11 -12 18 -15 15z"/>
<path d="M2095 2286 c28 -23 45 -25 45 -7 0 9 -45 31 -63 31 -7 0 1 -11 18
-24z"/>
<path d="M1478 2213 c-9 -10 -13 -24 -10 -32 2 -8 -6 -22 -19 -32 -19 -14 -21
-20 -11 -32 11 -13 16 -12 35 7 13 12 30 41 39 64 15 40 15 42 -1 42 -10 0
-25 -8 -33 -17z"/>
<path d="M2100 2160 c0 -5 5 -10 10 -10 6 0 10 5 10 10 0 6 -4 10 -10 10 -5 0
-10 -4 -10 -10z"/>
<path d="M2306 2156 c6 -16 34 -30 34 -18 0 5 -5 13 -12 20 -16 16 -29 15 -22
-2z"/>
<path d="M2186 2013 c-3 -3 -3 -17 0 -29 6 -22 3 -24 -37 -24 -42 -1 -46 -4
-94 -65 -27 -36 -54 -65 -58 -65 -5 0 -7 29 -5 65 l3 65 -42 0 -43 0 0 -186 0
-185 42 3 42 3 -2 55 c-2 43 2 60 18 79 11 13 22 22 24 20 2 -2 25 -39 51 -81
l46 -78 50 0 c27 0 49 2 49 5 0 3 -31 55 -69 115 l-70 108 51 59 c28 32 55 60
60 62 5 2 22 -12 37 -30 l28 -33 18 30 c11 16 20 31 22 33 1 2 9 -2 18 -9 9
-8 15 -8 15 -2 0 6 -13 19 -30 28 -23 14 -28 23 -24 41 6 22 4 23 -20 13 -16
-6 -35 -6 -50 0 -13 5 -27 6 -30 3z"/>
<path d="M712 1964 c10 -10 20 -16 22 -13 3 3 -5 11 -17 18 -21 13 -21 12 -5
-5z"/>
<path d="M893 1960 c-44 -14 -83 -63 -83 -106 0 -44 30 -75 95 -98 84 -29 100
-40 100 -66 0 -47 -100 -47 -112 0 -4 16 -14 20 -49 20 -48 0 -53 -9 -32 -55
41 -90 227 -94 273 -5 39 75 6 130 -100 165 -78 25 -101 48 -71 71 28 20 43
18 72 -11 18 -18 36 -25 64 -25 22 0 40 2 40 5 0 21 -33 76 -52 89 -31 20
-104 28 -145 16z"/>
<path d="M1560 1843 c1 -140 10 -187 44 -222 22 -22 37 -26 99 -29 67 -4 76
-2 105 23 42 35 52 77 52 223 l0 122 -42 0 -43 0 0 -129 c0 -147 -6 -161 -66
-161 -28 0 -41 5 -49 19 -5 11 -10 76 -10 145 l0 126 -45 0 -45 0 0 -117z"/>
<path d="M2406 1858 c-7 -18 -18 -46 -23 -63 -9 -27 -16 -31 -69 -41 -42 -8
-54 -13 -41 -18 9 -5 17 -17 17 -27 0 -14 7 -19 28 -19 15 0 37 -3 49 -6 18
-5 23 0 34 35 11 38 15 41 38 36 19 -4 33 1 54 20 32 31 35 55 6 62 -12 3 -18
11 -15 19 6 15 -22 34 -49 34 -9 0 -22 -15 -29 -32z"/>
<path d="M765 1699 c-4 -6 -5 -13 -2 -16 7 -7 27 6 27 18 0 12 -17 12 -25 -2z"/>
<path d="M627 1595 c-35 -56 -40 -84 -18 -108 4 -4 22 11 39 33 30 37 32 43
25 87 l-8 48 -38 -60z"/>
<path d="M1623 1549 c-45 -13 -73 -53 -73 -104 0 -36 5 -48 30 -68 16 -14 54
-33 84 -41 81 -24 99 -61 41 -88 -31 -14 -74 3 -82 32 -4 16 -14 20 -45 20
-40 0 -40 0 -34 -32 3 -18 20 -45 36 -60 26 -24 39 -28 93 -28 34 0 73 6 87
13 35 17 64 79 56 121 -8 44 -35 67 -109 92 -68 23 -88 43 -68 68 20 24 58 20
77 -10 14 -20 24 -24 53 -22 32 3 36 6 33 28 -5 33 -29 59 -69 76 -36 16 -64
16 -110 3z"/>
<path d="M960 1365 l0 -185 40 0 39 0 3 73 3 72 68 3 c67 3 67 3 67 32 0 29 0
29 -67 32 l-68 3 0 40 0 40 80 3 81 3 -4 34 -4 35 -119 0 -119 0 0 -185z"/>
<path d="M1240 1365 l0 -185 129 0 129 0 4 35 c2 20 2 38 -1 40 -2 3 -42 5
-88 5 l-83 0 0 40 0 40 78 0 77 0 0 30 0 30 -77 0 -78 0 0 40 0 40 85 0 85 0
0 35 0 35 -130 0 -130 0 0 -185z"/>
<path d="M800 1456 c0 -9 5 -16 10 -16 6 0 10 4 10 9 0 6 -4 13 -10 16 -5 3
-10 -1 -10 -9z"/>
<path d="M849 1409 c26 -21 37 -19 28 6 -4 8 -17 15 -29 15 l-23 -1 24 -20z"/>
<path d="M752 1237 l-22 -23 45 -22 c25 -12 48 -22 50 -22 3 0 12 11 21 25 16
24 15 26 -7 45 -32 26 -61 25 -87 -3z"/>
<path d="M1226 1105 c-9 -24 -9 -23 23 -39 28 -15 29 -15 34 12 6 32 8 29 -24
37 -19 5 -28 2 -33 -10z"/>
<path d="M1417 1032 c-16 -18 -16 -20 -2 -26 41 -16 55 -4 32 28 -12 16 -14
16 -30 -2z"/>
<path d="M1406 581 c-10 -15 5 -41 23 -41 27 0 31 10 13 31 -18 21 -28 24 -36
10z"/>
</g>
</svg>
