<?xml version="1.0" encoding="utf-8"?>
<!-- Generator: Adobe Illustrator 21.1.0, SVG Export Plug-In . SVG Version: 6.00 Build 0)  -->
<svg version="1.1" id="Layer_1" xmlns="http://www.w3.org/2000/svg" xmlns:xlink="http://www.w3.org/1999/xlink" x="0px" y="0px"
	 viewBox="0 0 64 64" style="enable-background:new 0 0 64 64;" xml:space="preserve">
<style type="text/css">
	.st0{fill:none;}
	.st1{fill:#FFFFFF;}
</style>
<path class="st0" d="M25.1,42.4c-0.1,0.1-0.1,0.3-0.2,0.5c0.5,0.3,1.1,0.5,1.6,0.8c0.1-0.5,0.2-1,0.3-1.5c-0.5-0.2-0.9-0.3-1.4-0.5
	C25.3,42,25.2,42.2,25.1,42.4z"/>
<path class="st0" d="M13.2,38.2c-0.3,0.2-0.6,0.4-0.9,0.6c-0.2,0.1-0.3,0.3-0.5,0.6c0.7,0.3,1.2,0.6,1.8,0.9
	c0.4,0.2,0.7,0.3,0.9,0.3c0.3,0,0.5-0.3,0.8-0.9c0.1-0.2,0.2-0.4,0.2-0.5c-0.5-0.3-1-0.5-1.3-0.8C13.9,37.8,13.6,38,13.2,38.2z"/>
<path class="st0" d="M14.5,33.5c0,0.2,0.1,0.3,0.2,0.5c0-0.2,0-0.3,0-0.5C14.7,33.5,14.6,33.5,14.5,33.5z"/>
<path class="st0" d="M29.8,45c0.3-0.2,0.5-0.1,0.8,0.1c0.3,0.1,0.6,0.3,0.9-0.1c-0.1-0.4-0.3-0.7-0.4-1.1
	C30.4,43.7,30.2,43.8,29.8,45z"/>
<path class="st0" d="M32.3,15.8c0.4,0.5,0.7,1.1,0.3,1.7c0.1,0,0.2-0.1,0.3-0.1c0-0.2,0-0.4,0-0.6c0-0.4-0.1-0.8-0.1-1.2
	C32.6,15.7,32.5,15.7,32.3,15.8z"/>
<path class="st0" d="M32.1,12.6c-0.2,0.2-0.5,0.4-0.7,0.6c0.5,0.8,0.5,0.8-0.3,1.3c-0.3,0.2-0.7,0.3-0.5,0.7
	c0.1,0.2,0.4,0.4,0.6,0.6c0.5-0.5,0.8-1.2,1.4-1c0-0.4,0-0.9,0.1-1.3c0.1-0.4,0.3-0.7,0.6-1c-0.1,0-0.1,0-0.2-0.1
	C32.7,12.1,32.4,12.1,32.1,12.6z"/>
<path class="st0" d="M13.7,26.8c-0.1-0.3-0.2-0.6-0.4-1c-0.3,0.4-0.5,0.7-0.8,1.2C12.9,26.9,13.3,26.9,13.7,26.8z"/>
<path class="st0" d="M10.2,27.7c-0.4,0.6-0.8,1.1-1.2,1.7c-0.6,0.9-1.3,1.8-0.1,2.9c0.2-0.2,0.4-0.5,0.6-0.7
	c0.2-0.3,0.5-0.6,0.7-0.9c0.1-0.1,0.3-0.3,0.3-0.4c0-0.8-0.1-1.7-0.1-2.5C10.4,27.7,10.3,27.7,10.2,27.7z"/>
<path class="st0" d="M12.5,19.9c-0.6-0.4-1.1-0.7-1.6-1.1c0.1,0.5,0.9,1.1,1.4,1.1C12.4,19.9,12.5,19.9,12.5,19.9z"/>
<path class="st0" d="M34.7,11.3C34.7,11.4,34.7,11.4,34.7,11.3C34.7,11.4,34.8,11.4,34.7,11.3C34.8,11.4,34.8,11.4,34.7,11.3z"/>
<path class="st0" d="M14.5,33.5c0-0.5-0.2-0.8-0.8-0.9c0,0.3,0,0.5,0,0.7C14,33.3,14.3,33.4,14.5,33.5z"/>
<path class="st0" d="M44.5,9.8c-0.1-0.1-0.2-0.2-0.4-0.3c-0.1,0.3-0.3,0.6-0.4,0.9c-0.1,0.1-0.2,0.2-0.3,0.2c-0.1,0-0.2-0.1-0.3-0.3
	C43,10,43,9.6,42.9,9.2c-0.2,0.1-0.4,0.3-0.5,0.3c0.1,0.6,0.1,1,0.2,1.6c0.4,0.1,0.7,0.2,1,0.4c0.1,0.1,0.2,0.2,0.3,0.4
	c0.2,0.1,0.4,0.3,0.7,0.4c0.1-0.1,0.2-0.1,0.2-0.2c-0.1-0.3-0.1-0.7-0.3-1C43.8,10.5,43.8,10.5,44.5,9.8z"/>
<path class="st0" d="M47.7,7.4c-0.2,0.1-0.4,0.2-0.6,0.3c-0.2-0.2-0.4-0.5-0.6-0.7c-0.2,0.1-0.5,0.2-0.7,0.3c-0.3,0-0.6,0.1-0.9,0.1
	c-0.1,0-0.3,0-0.4-0.1c-0.6-0.3-1-0.1-1.6,0.2C43.2,8,43,8.6,43.7,8.8c0.5,0.1,0.9,0.4,1.4,0.6c0-0.3,0.1-0.6,0.1-0.9
	c0-0.6,0.3-0.8,0.8-0.7c0.6,0.1,1.2,0.2,1.8,0.3C47.8,7.9,47.8,7.7,47.7,7.4z"/>
<polygon class="st0" points="51,29.3 52.2,29.3 51,27.5 "/>
<path class="st0" d="M53.1,21.6c0.3-0.6,0.6-1,0.9-1.5c0.3,0.2,0.6,0.4,0.8,0.5c0.1-0.1,0.1-0.1,0.2-0.2c-0.2-0.8-1.2-0.8-1.6-1.4
	c0.2-0.3,0.3-0.7,0.5-1.1c-0.6,0.3-1.1,0.5-1.6,0.5c-0.3,0-0.6-0.1-1-0.3c-0.2-0.1-0.5,0-0.6,0.3c0.1,0.3,0.2,0.7,0.4,1h-2.2
	L48.2,20H51v0.2l0.2-0.2c0,0,0,0,0,0c0.4,0,0.6,0.3,0.8,0.6C52.3,21.1,52.6,21.7,53.1,21.6z"/>
<path class="st0" d="M59,22.8c-0.1,0-0.3-0.1-0.4-0.2c0.1-0.3,0.2-0.5,0.2-0.6c-1.3-1-1.9-0.8-2.4,0.7c-0.2,0.8-0.6,1.6-0.8,2.2
	c-0.1,0-0.2,0-0.3,0c-0.1,0-0.2,0-0.3,0c-0.4,0-0.8,0-1,0.1c-0.6,0.3-1,0.3-1.4,0.1c0,0.1,0,0.2,0,0.2c0.3,0,0.6,0.2,0.9,0.4
	c0.2,0.1,0.1,0.6,0.2,1.1c0.9-0.6,1.8,0.2,2.5,0.2c0.3-0.9,0.6-1.6,0.9-2.3c1.1,0.5,1.1,0.5,1.9-0.2c0.2-0.1,0.4-0.2,0.5-0.4
	c0.2-0.3,0.3-0.6,0.3-0.9C59.6,23,59.4,22.7,59,22.8z"/>
<path class="st0" d="M30.3,55.7c-0.1,0.3-0.4,0.6-0.5,0.7c0,0,0,0,0,0c0.1,0.3,0.5,0.5,0.3,0.8c0,0,0,0,0,0c0.5,0,1-0.2,1.4-0.5
	C30.9,56.6,30.5,56.1,30.3,55.7z"/>
<path class="st0" d="M49.1,13.8c-0.4,0-0.7,0-0.9,0.1c0.2,0.2,0.4,0.4,0.6,0.7C49,14.4,49.1,14.2,49.1,13.8z"/>
<path class="st0" d="M54.9,15c0-0.7-0.3-1.1-0.9-1.3C53.9,14.5,54,14.7,54.9,15z"/>
<path class="st0" d="M27.6,57.6c0,0,0.1,0,0.1,0C27.7,57.6,27.6,57.6,27.6,57.6C27.6,57.6,27.6,57.6,27.6,57.6z"/>
<path class="st0" d="M49.5,10.9c0-0.1-0.3-0.3-0.5-0.3c-0.2-0.1-0.5-0.2-0.7-0.3c-0.2-0.1-0.5-0.1-0.7-0.1c0,0,0,0.1,0,0.1
	c0.5,0.4,1,0.8,1.6,1.3C49.3,11.4,49.5,11.1,49.5,10.9z"/>
<path class="st1" d="M60.7,25c0.2-1.5-0.5-2.7-1.4-3.8c-0.2-0.2-0.4-0.5-0.4-0.5c0.1-0.5,0.4-1.1,0.3-1.2c-0.4-0.4-0.6-1.3-1.5-0.9
	c-0.1-0.4-0.2-0.8-0.3-1.2c0.4-0.2,1.1-0.3,0.1-0.7c-0.1,0-0.1-0.3-0.1-0.4c0.2-0.6,0.4-1.2,0.6-1.8c0.1-0.2,0.2-0.5,0.3-0.7
	c0.9-1.1,1.1-2.5,0.3-3c0.6,0.7,0.4,1.3,0.2,2c-0.2,0.3-0.3,0.7-0.4,1c-0.8,1-1.2,2.1-1.3,3.3c-0.5-0.2-1-0.6-1.5-0.5
	c-0.4,0.1-0.8,0.6-1.1,0.8c0-0.1,0.1-0.4,0.3-0.7c0.3-0.5,0.9-0.8,0.3-1.5c0.5-0.1,1-0.1,1.3-0.2c0.3-0.1,0.5-0.4,0.6-0.7
	c0-0.1-0.3-0.5-0.5-0.6c-1.1-0.5-1.2-0.4-1.3,0.7c-0.4-0.3-0.7-0.6-1.2-1c0.4-1.2-0.1-2.3-0.7-3.4c-0.1-0.1-0.1-0.3-0.1-0.4
	c0.3-0.8,0.1-1.5-0.3-2.2C52.7,7,52.6,6.5,52.5,6c0.5-0.4,0.6-0.9,0-1.5c-0.3,0.2-0.5,0.3-0.8,0.5c0.3,0.6,0.6,1.1,0.8,1.7
	c0.1,0.2,0,0.5-0.1,0.8c-0.1,0.3-0.5,0.5-0.1,0.9c0,0-0.2,0.3-0.3,0.6c0.3,0.2,0.6,0.4,1,0.6c-0.6,0.3-0.9,0.2-1.2-0.2
	c-0.6-0.8-0.9-0.8-1.4,0.1c-0.1,0.1-0.1,0.2-0.2,0.4c0.2,0.1,0.5,0.2,0.7,0.4c0.6,0.3,0.7,0.6,0.3,1.2c-0.2,0.2-0.4,0.4-0.6,0.5
	c-0.1,0.1-0.4,0.1-0.5,0c-0.1-0.1-0.1-0.3-0.1-0.5c0.3-0.7,0.1-1.1-0.4-1.6c-0.3-0.3-0.6-0.5-1.1-0.1c0-0.3-0.1-0.5-0.1-0.6
	c0.4,0,0.7,0,1,0.1c0-0.3-0.1-0.6-0.1-1c-0.3,0.1-0.5,0.2-0.8,0.3c0-0.2-0.1-0.4-0.1-0.6c1.2-0.5,1.5-1,1.1-2.3
	c-0.9-0.1-1.7-0.1-2.4,0.5C46.7,6.5,46,6.7,45.5,7C45.3,7.1,45,7,44.9,7c-0.2-0.4-0.3-0.7-0.4-1c0-0.3,0.1-0.6-0.1-0.8
	c-0.2-0.3-0.6-0.5-0.9-0.7c-0.1,0-0.1,0.1-0.2,0.1c0-0.1,0-0.2,0-0.2c0.8-0.2,0.6-0.8,0.5-1.4c0-0.1-0.1-0.4-0.2-0.4
	c-0.6-0.1-0.6-0.6-0.9-0.9c-0.2-0.3-0.5-0.5-0.7-0.8c-0.9,0.3-1,0.6-0.4,1.3C42,2,42.3,1.9,42.6,1.7c0.6,0.7-0.3,1-0.4,1.6
	c0.7,0.5,1,1.2,0.8,1.9c-0.5,0.2-1,0.2-1.2,0.5C41.7,6,41.7,6.5,41.5,7c-0.4-0.2-0.7-0.3-0.9-0.5c-0.4-0.4-0.6-0.9-0.9-1.3
	c-0.1-0.1-0.3-0.3-0.5-0.3c-0.4,0-0.7,0-1.1,0c0.8,0.3,1.5,0.6,1.9,1.3C39.5,6.1,39,6,38.4,5.9v1.7c-0.5-0.6-1.2-0.4-1.5-1.1
	c0-0.1-0.4-0.1-0.7-0.1c-0.2,0-0.4,0.1-0.6,0.2c-0.8,0.2-1.1,0.6-0.7,1.3c0.3,0.6,0.2,0.9-0.5,0.9c-0.5,0-0.8,0.1-1.1,0.5
	c-0.1,0.2-0.2,0.4-0.3,0.5c-0.4-0.2-0.7-0.3-1.1-0.5v1.6c-0.1,0.1-0.3,0.5-0.6,0.6c-0.5,0.2-0.7,0.4-0.5,0.9c-0.9-0.1-1.3,0-1.3,0.6
	c0,0.8,0.1,1.5,0.1,2.3c0,0.7,0.3,1.3,0.6,1.9c0.3,0.4,0.7,0.8,1.1,1.1c0.2,0.2,0.7,0.1,1,0.1c0.1,0,0.3,0,0.4-0.1
	c-0.1,0.4-0.3,0.8-0.5,1.2h-1.8c0.2-0.6,0-1.2-0.4-1.7c-0.3-0.4-0.6-0.7-0.9-0.9c0.2-0.5,0-0.6-0.8-0.7c0,0.1,0,0.1-0.1,0.2
	c-0.2-0.1-0.4-0.2-0.7-0.3c0-0.1,0-0.1-0.1-0.2c-0.1-0.2-0.2-0.4-0.4-0.6c-0.2-0.2-0.5-0.3-0.7-0.4c-0.8,0.3-1.5,0.5-2.3,0.8
	c0-0.7-0.1-1.2-0.8-1c-0.1,0-0.1-0.1-0.2-0.1c-0.4-0.3-0.7-0.6-1.1-1c-0.1,0.4-0.2,0.6-0.3,0.8c-0.4-0.2-0.8-0.4-1.1-0.6
	c-1.3,1.3-1.4,1.6-0.7,2.9c-0.4,0.1-0.7,0.2-1.1,0.3c-0.1-0.4-0.2-0.6-0.2-0.8c-0.5,0.2-0.9,0.3-1.2,0.4c-0.2,0.3-0.4,0.5-0.5,0.7
	c-0.2-0.2-0.5-0.3-0.6-0.6c-0.2-0.5-0.6-0.8-1.3-0.7c0.4-0.6,0.8-1.1,1-1.5c0.1,0.3,0.2,0.7,0.3,0.7c0.4,0.1,0.8,0,1.2,0
	c0-0.1,0.1-0.2,0.1-0.3c-0.3-0.5-0.6-0.9-1-1.5c0.5-0.7,0.6-1.7,0.4-2.7c0-0.2-0.2-0.4-0.3-0.5c-0.6-0.1-1.2-0.2-1.8-0.2
	c-0.1,0.2-0.2,0.4-0.5,0.5c-0.3,0-0.5,0-0.8-0.1c0.3,0.2,0.6,0.3,0.8,0.5c0.3-0.2,0.6-0.5,0.9-0.7c0.3-0.1,0.8-0.4,0.9,0.3
	c0,0.1,0.2,0.1,0.2,0.2c0.1,0.3,0.3,0.6,0.3,1c0,0.4-0.3,0.8-0.4,1.2c-0.7-0.5-1.3-0.8-2.2-0.2c0.2,0.7,0.4,1.4,0.6,2.1
	c0.1,0,0.1,0,0.2,0c-0.2,0.2-0.3,0.4-0.4,0.6c-0.2-0.1-0.4-0.3-0.5-0.4c-0.5-0.2-1-0.3-1.5-0.5c-0.8-0.2-1.6,0-2,0.6
	c-0.3,0.6-0.2,1,0.6,1.7c-0.2,0.5-0.5,1.1-0.4,1.6c0.1,1-0.6,1.2-1.1,1.5c-0.3-0.2-0.5-0.4-0.7-0.6c0,0-0.1,0.1-0.1,0.1
	c0.2,0.3,0.4,0.5,0.6,0.9c-0.3,0.1-0.6,0.3-0.7,0.2c-0.7-0.2-1.2,0.1-1.7,0.5c-1.1,0.7-1.1,0.7-0.4,1.9c0.4,0.7,1,0.7,1.6,0.2
	c0.3-0.3,0.6-0.5,1-0.6c0.4-0.1,0.8-0.1,1.4-0.2c0.2,0.5,0.4,1.2,0.7,1.8c-1,0.6-1.8,1.2-2.8,1.8c0.4,0.7,0.8,1.4,1.2,2.2
	c-0.1,0.1-0.3,0.4-0.5,0.6c-0.1,0-0.1,0-0.2,0c-0.1-0.4-0.2-0.8-0.3-1.2c-0.2-0.8-0.3-1.6-0.7-2.3c-0.2-0.3-0.9-0.3-1.4-0.4
	c-0.1,0-0.1-0.1-0.2-0.1c0-0.2,0.1-0.4,0.1-0.6c0.1-0.8-0.1-1.1-1-1c-0.3,0-0.6,0-0.9,0c0.3-1,0.6-1.9,0.9-2.9
	c-0.1,0-0.1-0.1-0.2-0.1c0.1,1-0.4,1.2-1.2,1.2v0.1c0.6,0.4,0.5,1,0.3,1.6c-0.4,1-0.1,1.8,0.6,2.3c0.7-0.1,1.2-0.2,1.8-0.3
	c-0.2,1,0.2,1.4,1.3,1.6c0,0.3,0,0.6,0.1,1c-0.4,0-0.8,0-1.1,0c-0.7-0.1-1.2,0.2-1.1,0.9c0.1,0.5,0.3,1,0.6,1.4c0.1,0.1,0.6,0,1-0.1
	c0,1-0.2,1.9-1.1,2.6c0.6,0.7,1.1,1.3,1.7,2c-0.4,0.4-0.7,0.7-1.1,1.1c0.3,0.5,0.6,1,0.8,1.4c-0.4,0.2-0.8,0.3-1.1,0.5
	c-0.1,0.1,0,0.6,0,0.6c1,0.1,1.2,0.9,1.7,1.5c0.1,0.1,0.1,0.1,0.2,0.2c0.6-0.4,1.2-0.8,1.9-1.3c0,0.4,0.6,0.6,0,0.9
	c0.5,0.1,1,0.2,1.4,0.2c0,0.1,0,0.1,0,0.2c-0.3,0-0.6,0-0.9,0c-0.6,0-1,0.3-1.2,0.9c-0.2,0.6,0.2,0.9,0.8,1.1c0.1,0,0.2,0.1,0.2,0.1
	c0.3,0.4,0.8,0.7,1.2,0.4c0.4-0.3,0.6-0.8,0.8-1.2c0.1-0.2,0-0.5,0.1-0.9c0.7,0.4,1.2,1.3,2.1,1c0.1,0.5,0.2,1,0.3,1.5
	c1.1-0.2,2.4,0.2,3-1.3c0.5,0.3,0.8,0.9,1.4,0.5c0.7-0.5,1.1-1.1,1-2.1c0.4,0.1,0.9,0.2,1.2,0.4c0.2,0.1,0.1,0.6,0.1,0.8
	c-0.2,1-0.2,1-1.3,0.9c-0.3,0-0.6,0.2-0.9,0.4c-0.2,0.2-0.4,0.4-0.6,0.7c-0.2-0.2-0.3-0.3-0.5-0.5c-0.1,0.2-0.1,0.4-0.2,0.6h0.8
	c-0.3,0.2-0.5,0.4-0.7,0.6c0.3,0.4,0.3,1.1,1,1c0.2,0,0.4-0.4,0.7-0.7c1,0.1,1,0.2,1.6-0.8c0.3-0.5,0.8-0.5,1.2-0.4
	c0.7,0.2,1.4,0.6,2.1,0.8c-0.1,0.4-0.2,0.7-0.2,1c0,0.3,0.1,0.6,0.5,0.5c0.1,0,0.3,0.1,0.4,0.2c0.1,0.1,0.2,0.2,0.3,0.2
	c0.4-0.1,0.7,0,1.1,0c0.7,0.1,1.3,0.1,1.9-0.4c0.2,0.6,0.4,1.1,0.5,1.6c0.5-0.3,0.9-0.5,1.2-0.7c0.3,0.2,0.6,0.4,0.8,0.6
	c0.1-0.3,0.4-0.6,0.4-0.9c0.1-0.5,0.4-0.5,0.8-0.5c0.3,0,0.6-0.2,0.8-0.2c0-0.1,0-0.1,0-0.2c0.5,0.2,0.9,0.3,1.5,0.5
	c-0.6,0.7-0.7,1.4-0.1,2.2c0.4-0.1,0.8-0.2,1.2-0.3c0.5-0.2,0.7-0.1,0.9,0.4c0.5,1.5,0.6,2.9-0.1,4.3c-0.4,0.7-0.9,1.2-1.5,1.6
	c-0.1,0.1-0.2,0.1-0.2,0.2c0-0.2,0-0.4-0.1-0.6c1.2-4.1-0.9-4.7-1.8-3.9c-0.5-0.3-0.9,0.3-0.9,1.3c-0.1-0.1-0.3-0.2-0.5-0.2
	c-0.4,0-0.6,0.3-0.6,0.6c0,0.3,0.3,0.5,0.6,0.5c-0.4,0.3-0.5,1-0.1,1.7c0-0.3,0.2-0.6,0.6-0.9c0,0.2,0.1,0.3,0.2,0.4l-0.9,0.8
	l0.5-0.1c-0.2,0.5-1.4,0.3-1.6-0.7c0,0-0.1-0.1-0.1,0l-0.2,0.1c0-0.1,0.1-0.1,0.1-0.2c0-0.1,0-0.2,0-0.3c0.1-0.1,0.1-0.2,0.1-0.3
	c0-0.2-0.2-0.3-0.5-0.2c0,0,0,0,0,0l-0.3-1c0,0,0-0.1,0-0.1l0,0c0,0,0-0.1,0-0.1l0-0.2c0,0,0,0,0-0.1c0,0,0-0.1-0.1-0.1l-0.4,0
	c0,0-0.1,0-0.1,0.1c0,0,0,0.1,0,0.1l0,0.2c0,0,0,0.1,0,0.1l0,0c0,0,0,0,0,0.1l-0.2,1c0,0,0,0.1,0,0.1l0,0.3c0,0-0.1,0-0.1,0
	c-0.2,0-0.4,0.2-0.4,0.3c0,0.1,0.1,0.2,0.2,0.3c-0.1,0.1-0.2,0.2-0.2,0.3c0,0.1,0,0.1,0.1,0.2c-0.2,0.1-0.2,0.2-0.2,0.4
	c0,0.2,0.3,0.3,0.5,0.2c0.1,0,0.1-0.1,0.2-0.1l0,0.1c0,0.1,0.1,0.1,0.1,0.1l0.6,0c0.1,0,0.1,0,0.1-0.1l0.1,0.3
	c-0.2-0.1-0.7-0.2-0.8,0.1c-0.2,0.5-0.2,0.4-0.1,0.8c0.1,0.4,0.2,0.9,0,1.3C29,56.4,29,56.4,29,56.4L28,56.5c0,0-0.2-0.4-0.5-0.3
	c-0.1,0.1-0.2,0.2-0.2,0.2L27,56.3c0,0-0.4,0.3-0.2,0.7c0.1,0.1,0.3,0.2,0.4,0.2c-0.1,0.1-0.1,0.2-0.1,0.3c0,0.1,0.1,0.1,0.2,0.2
	c-0.3,0.1-0.6,0.1-0.9,0.2c-0.9,0.2-1,0.3-0.6,1.3c-0.3,0-0.6,0.1-0.9,0.1c-1.1,0-2,0.4-2.9,1c-0.5,0.3-1.1,0.5-1.7,0.5
	c-1,0.1-2,0.1-2.7,1c0.7-0.5,1.5-0.4,2.3-0.4c0.4,0,0.7,0,1.1,0c0.4-0.1,0.9-0.3,1.3-0.5c0.9-0.7,2-1.1,3.2-1
	c0.8,0.1,1.4-0.1,1.9-0.7c0.3-0.4,1-0.5,1.6-0.7c0,0.1,0.1,0.2,0.1,0.2c-0.6,0.4-1.2,0.8-1.8,1.2c0,0,0,0.1,0,0.1
	c0.7-0.2,1.4-0.4,2.1-0.6c0.7-0.2,1.5-0.4,2.3-0.6c-0.4,0.7-0.9,1.1-1.6,1.2c-1.1,0.2-2.1,0.6-2.9,1.3c-0.8,0.7-1.8,1-2.8,1.1
	c-0.8,0.1-1.6,0.3-2.1,1.1h0.3c0.8-0.3,1.6-0.5,2.4-0.8c1-0.3,2-0.6,2.9-1c1-0.5,2-0.8,3.1-0.9c0.8-0.1,1.6-0.6,2.3-0.9
	c0.5-0.2,0.9-0.6,1.3-0.9c0.3-0.2,0.5-0.2,0.6,0.1c0.5,1.1,1.4,1.4,2.4,1.4c0.8,0,1.5,0,2.2,0.6c0.4,0.3,1,0.3,1.5,0.4
	c1,0,1.9,0.3,2.7,0.8c0.9,0.5,1.9,0.6,3,0.1c-0.8-0.1-1.4-0.1-2-0.2c-0.3,0-0.6-0.1-0.8-0.3c-0.7-0.6-1.5-1-2.5-1.2
	c-0.5-0.1-0.8-0.5-0.7-0.9c0.1-0.4,0.4-0.8,0.8-1c0.8-0.3,1.5,0,2.2,0.5c-0.1,0.2-0.2,0.3-0.2,0.5c1,0.7,2.2,1,3.4,0.8
	c0.8-0.1,1.7-0.3,2.5-0.4c1-0.2,1.8,0,2.5,0.8c0.2,0.2,0.5,0.3,0.9,0.4c-0.9-1.1-1.9-1.8-3.4-1.6c-0.8,0.1-1.5,0.1-2.3,0.2
	c-1,0-1.6-0.4-2-1.3c-0.3-1-1.1-1.4-2.1-1.5c-1.1-0.1-1.3-0.5-0.7-1.4c0.6-0.9,1.3-1.8,1.9-2.6c1-1.4,1.5-2.8,1.2-4.5
	c-0.2-0.9-0.6-1.7-1.3-2.3c-0.3-0.3-0.5-0.6-0.8-1c0.2-0.1,0.3-0.1,0.5-0.2c0.5-0.2,0.7-0.5,0.4-1c-0.2-0.5-0.3-0.9-0.4-1.5
	c0.5-0.1,0.9-0.2,1.3-0.2c0.3-0.5-0.3-1.3,0.3-1.7h-1.5l1.9-1.7h-5v-8.2h5.6V32h-3.7v1.7h3.1v1.5h-3.1v2h3.7v1.1
	c0.7-0.3,1.4-0.4,2.1-0.6c0.3,1,0.9,1.4,1.8,1.4c0.7-0.1,0.8-0.6,0.8-1.3c0.6,0.1,1.3,0.2,1.9,0.3c0.1,0,0.3,0.1,0.3,0.2
	c0.5,0.8,1.2,0.8,2,0.7c0.5-1.4,0.3-2-0.8-2.5c0.1-0.3,0.1-0.7,0.2-1.2c-0.5-0.1-0.5-1-1.2-0.6c-0.2,0.1-0.3,0.7-0.2,1
	c0.1,0.2,0.6,0.3,0.9,0.4c-0.2,1.1-0.5,1.5-1.2,1.6c-0.1-0.5-0.2-0.9-0.3-1.4c-0.2-0.5-0.4-0.9-1-1.1c-0.5-0.1-0.5-0.6-0.1-1
	c0.8-0.9,1.1-1.7,0.8-2.9c-0.4,0-0.8,0-1.2-0.1c0.2-0.3,0.4-0.7,0.6-1.1c0.2,0.1,0.4,0.3,0.7,0.4c0.7,0.4,1.4,0.1,1.6-0.7
	c0.2-0.9,0.5-1.2,1.4-1.3c0.3,0,0.6,0,0.9,0c0.4,0,0.8,0,1.2,0c0.3-0.1,0.7-0.4,0.9-0.8c0.3-0.5,0.6-0.8,1.2-0.9
	c0.3,0,0.6-0.4,1-0.6v-0.7C60.9,25.4,60.7,25.2,60.7,25z M10.2,30.7C10,31,9.7,31.3,9.5,31.6c-0.2,0.3-0.4,0.5-0.6,0.7
	c-1.2-1.1-0.4-2.1,0.1-2.9c0.4-0.6,0.8-1.1,1.2-1.7c0.1,0,0.1,0.1,0.2,0.1c0,0.8,0.1,1.7,0.1,2.5C10.5,30.4,10.3,30.5,10.2,30.7z
	 M14.5,33.5c-0.2-0.1-0.5-0.1-0.7-0.2c0-0.2,0-0.4,0-0.7C14.3,32.6,14.5,33,14.5,33.5z M13.7,26.8c-0.4,0.1-0.7,0.1-1.2,0.2
	c0.3-0.4,0.5-0.7,0.8-1.2C13.4,26.2,13.5,26.5,13.7,26.8z M11,18.8c0.5,0.3,1,0.7,1.6,1.1c0,0-0.1,0-0.2,0
	C11.9,19.9,11,19.4,11,18.8z M15.3,39.6c-0.4,0.7-0.5,0.9-0.8,0.9c-0.2,0-0.5-0.1-0.9-0.3c-0.6-0.2-1.1-0.5-1.8-0.9
	c0.2-0.2,0.3-0.4,0.5-0.6c0.3-0.2,0.6-0.4,0.9-0.6c0.4-0.2,0.7-0.4,1.1,0.1c0.3,0.3,0.8,0.5,1.3,0.8C15.5,39.2,15.4,39.4,15.3,39.6z
	 M21.5,37.6c-0.3,0.3-0.7,0.6-1.3,0.8c-0.6,0.2-1.2,0.3-1.9,0.3c-1.1,0-1.9-0.3-2.6-1c-0.6-0.7-1-1.6-1-2.7l0-0.7c0-0.1,0-0.2,0-0.4
	c-0.1-0.1-0.2-0.3-0.2-0.5c0.1,0,0.2,0,0.3,0c0.1-0.4,0.2-0.9,0.3-1.2c0.3-0.6,0.7-1.1,1.2-1.4c0.5-0.3,1.1-0.5,1.8-0.5
	c1,0,1.8,0.2,2.4,0.7c0.6,0.5,0.9,1.2,1,2.1h-1.9c-0.1-0.5-0.2-0.8-0.4-1c-0.2-0.2-0.5-0.3-1-0.3c-0.5,0-0.9,0.2-1.1,0.6
	s-0.4,1-0.4,1.8v0.5c0,0.8,0.1,1.4,0.4,1.8c0.3,0.4,0.7,0.6,1.3,0.6c0.5,0,0.9-0.1,1.1-0.3v-1.3h-1.4v-1.4h3.3V37.6z M21.3,20.9h2.2
	l1.6,5.9l1.6-5.9h2.2l-2.7,8.2H24L21.3,20.9z M26.6,43.7c-0.6-0.3-1.1-0.5-1.6-0.8c0.1-0.2,0.1-0.3,0.2-0.5c0.1-0.2,0.2-0.4,0.4-0.7
	c0.5,0.2,0.9,0.3,1.4,0.5C26.8,42.7,26.7,43.2,26.6,43.7z M29.1,35.8c0,0.6-0.1,1.1-0.4,1.6c-0.3,0.4-0.6,0.8-1.1,1
	s-1.1,0.3-1.7,0.3c-1,0-1.8-0.3-2.3-0.8s-0.9-1.2-0.9-2.1v-5.4h2v5.4c0,0.9,0.4,1.3,1.2,1.3c0.4,0,0.7-0.1,0.9-0.3
	c0.2-0.2,0.3-0.6,0.3-1.1v-5.3h2V35.8z M30.4,20.9h2v8.2h-2V20.9z M30.6,45c-0.2-0.1-0.5-0.2-0.8-0.1c0.5-1.1,0.7-1.3,1.2-1.1
	c0.1,0.4,0.3,0.7,0.4,1.1C31.2,45.3,30.9,45.2,30.6,45z M32.4,38.6h-2v-8.2h2V38.6z M32.8,17.4c-0.1,0.1-0.2,0.1-0.3,0.1
	c0.4-0.7,0.2-1.2-0.3-1.7c0.2-0.1,0.3-0.1,0.4-0.1c0.1,0.4,0.1,0.8,0.1,1.2C32.9,17,32.8,17.2,32.8,17.4z M32.8,13.4
	c-0.1,0.4-0.2,0.9-0.1,1.3c-0.6-0.2-0.9,0.5-1.4,1c-0.2-0.2-0.5-0.4-0.6-0.6c-0.2-0.4,0.2-0.5,0.5-0.7c0.8-0.5,0.9-0.5,0.3-1.3
	c0.2-0.2,0.6-0.3,0.7-0.6c0.3-0.5,0.6-0.5,1.1-0.3c0.1,0,0.1,0.1,0.2,0.1C33.1,12.7,32.9,13.1,32.8,13.4z M27.6,57.6
	C27.6,57.6,27.6,57.6,27.6,57.6c0.1-0.1,0.1,0,0.1,0C27.6,57.6,27.6,57.6,27.6,57.6z M30.1,57.4C30.1,57.4,30.1,57.4,30.1,57.4
	c0.2-0.4-0.2-0.6-0.3-0.9c0,0,0,0,0,0c0.2-0.1,0.4-0.4,0.5-0.7c0.2,0.3,0.6,0.9,1.1,1.2C31.1,57.2,30.6,57.4,30.1,57.4z M34.7,11.3
	C34.8,11.4,34.8,11.4,34.7,11.3C34.8,11.4,34.7,11.4,34.7,11.3C34.7,11.4,34.7,11.4,34.7,11.3z M40.2,34.7c0,0.7-0.2,1.4-0.5,2
	s-0.8,1.1-1.3,1.4c-0.6,0.3-1.2,0.5-1.9,0.5h-2.7v-8.2h2.6c0.7,0,1.4,0.2,1.9,0.5c0.6,0.3,1,0.8,1.3,1.4s0.5,1.3,0.5,2V34.7z
	 M40.5,25.6c-0.6,0.5-1.4,0.7-2.3,0.7h-1.3v2.8h-2v-8.2h3.3c0.6,0,1.2,0.1,1.7,0.3c0.5,0.2,0.9,0.6,1.1,1s0.4,0.9,0.4,1.4
	C41.3,24.5,41.1,25.1,40.5,25.6z M54,13.8c0.7,0.2,0.9,0.6,0.9,1.3C54,14.7,53.9,14.5,54,13.8z M44.6,12.4c-0.2-0.1-0.5-0.3-0.7-0.4
	c-0.1-0.1-0.2-0.3-0.3-0.4c-0.3-0.2-0.6-0.4-1-0.4c-0.1-0.6-0.1-1.1-0.2-1.6c0.1-0.1,0.3-0.2,0.5-0.3C43,9.6,43,10,43.1,10.3
	c0,0.1,0.2,0.2,0.3,0.3c0.1,0,0.2-0.1,0.3-0.2c0.1-0.3,0.3-0.6,0.4-0.9c0.2,0.1,0.3,0.2,0.4,0.3c-0.7,0.7-0.6,0.7,0,1.5
	c0.2,0.3,0.2,0.6,0.3,1C44.7,12.3,44.6,12.4,44.6,12.4z M46.1,7.7c-0.5-0.1-0.8,0.1-0.8,0.7c0,0.3-0.1,0.6-0.1,0.9
	c-0.5-0.2-0.9-0.5-1.4-0.6C43,8.6,43.2,8,42.9,7.5c0.6-0.3,1-0.5,1.6-0.2c0.1,0.1,0.2,0.1,0.4,0.1c0.3,0,0.6-0.1,0.9-0.1
	c0.2,0,0.5-0.2,0.7-0.3c0.2,0.3,0.4,0.5,0.6,0.7c0.2-0.1,0.4-0.2,0.6-0.3c0.1,0.2,0.1,0.4,0.2,0.7C47.2,8,46.6,7.8,46.1,7.7z
	 M47.6,10.1c0.2,0,0.5,0.1,0.7,0.1c0.3,0.1,0.5,0.2,0.7,0.3c0.2,0.1,0.5,0.2,0.5,0.3c0,0.2-0.2,0.5-0.3,0.6
	c-0.6-0.5-1.1-0.9-1.6-1.3C47.6,10.2,47.6,10.2,47.6,10.1z M49.1,13.8c0.1,0.4-0.1,0.6-0.3,0.7c-0.2-0.2-0.4-0.5-0.6-0.7
	C48.4,13.8,48.7,13.8,49.1,13.8z M51,29.3v-1.8l1.2,1.8H51z M52,20.7c-0.2-0.4-0.4-0.6-0.8-0.6c0,0,0,0,0,0L51,20.2V20h-2.8l0.5-0.6
	H51c-0.1-0.3-0.2-0.7-0.4-1c0.1-0.3,0.4-0.4,0.6-0.3c0.3,0.2,0.7,0.3,1,0.3c0.5,0,1-0.2,1.6-0.5c-0.2,0.5-0.4,0.8-0.5,1.1
	c0.5,0.6,1.4,0.6,1.6,1.4c-0.1,0.1-0.1,0.1-0.2,0.2c-0.2-0.1-0.4-0.3-0.8-0.5c-0.3,0.5-0.5,0.9-0.9,1.5C52.6,21.7,52.3,21.1,52,20.7
	z M59.3,24.2c-0.1,0.2-0.3,0.2-0.5,0.4C58,25.3,58,25.3,57,24.8c-0.3,0.7-0.5,1.4-0.9,2.3c-0.7,0-1.6-0.8-2.5-0.2
	c-0.1-0.5,0-1-0.2-1.1c-0.3-0.1-0.6-0.4-0.9-0.4c0-0.1,0-0.2,0-0.2c0.4,0.2,0.9,0.2,1.4-0.1c0.3-0.1,0.6-0.1,1-0.1
	c0.1,0,0.2,0,0.3,0c0.1,0,0.2,0,0.3,0c0.2-0.6,0.6-1.4,0.8-2.2c0.4-1.4,1-1.7,2.4-0.7c-0.1,0.2-0.1,0.4-0.2,0.6
	c0.1,0.1,0.3,0.2,0.4,0.2c0.5-0.1,0.7,0.2,0.7,0.6C59.6,23.6,59.5,23.9,59.3,24.2z"/>
<path class="st1" d="M38.2,22.4h-1.3v2.4h1.3c0.4,0,0.7-0.1,0.9-0.3c0.2-0.2,0.3-0.5,0.3-0.8c0-0.4-0.1-0.7-0.3-0.9
	C38.8,22.5,38.5,22.4,38.2,22.4z"/>
<path class="st1" d="M36.4,32h-0.7v5.1h0.7c0.6,0,1-0.2,1.3-0.6s0.5-1,0.5-1.8v-0.4c0-0.8-0.2-1.4-0.5-1.8S37,32,36.4,32z"/>
</svg>
